<svg width="1920" height="1080" viewBox="0 0 1920 1080" fill="none" xmlns="http://www.w3.org/2000/svg">
<g filter="url(#filter0_f_106_109)">
<path d="M-108.244 613.369C-203.931 386.569 -465.359 280.281 -692.158 375.968L-738.986 395.724C-965.786 491.411 -1072.07 752.839 -976.387 979.639L-957.392 1024.66C-861.705 1251.46 -600.277 1357.75 -373.477 1262.06L-326.65 1242.31C-99.8503 1146.62 6.43796 885.191 -89.2491 658.391L-108.244 613.369Z" fill="url(#paint0_radial_106_109)"/>
<path d="M-108.244 613.369C-203.931 386.569 -465.359 280.281 -692.158 375.968L-738.986 395.724C-965.786 491.411 -1072.07 752.839 -976.387 979.639L-957.392 1024.66C-861.705 1251.46 -600.277 1357.75 -373.477 1262.06L-326.65 1242.31C-99.8503 1146.62 6.43796 885.191 -89.2491 658.391L-108.244 613.369Z" stroke="#00E29A" stroke-width="52.3709"/>
</g>
<g filter="url(#filter1_f_106_109)">
<rect width="873.655" height="872.639" rx="436.319" transform="matrix(-0.86565 0.50065 0.50065 0.86565 -62.1006 200.181)" fill="url(#paint1_radial_106_109)"/>
</g>
<g filter="url(#filter2_f_106_109)">
<path d="M-261.976 79.0476C-466.453 -144.223 -813.211 -159.457 -1036.48 45.0197L-1142.74 142.33C-1366.01 346.807 -1381.24 693.565 -1176.76 916.835L-1107.38 992.596C-902.902 1215.87 -556.145 1231.1 -332.874 1026.62L-226.62 929.313C-3.35001 724.836 11.8846 378.079 -192.592 154.809L-261.976 79.0476Z" fill="url(#paint2_radial_106_109)"/>
</g>
<g filter="url(#filter3_f_106_109)">
<rect width="1270.96" height="1269.49" rx="610.365" transform="matrix(-0.86565 0.50065 0.50065 0.86565 63.4268 -354.908)" fill="url(#paint3_radial_106_109)"/>
</g>
<g filter="url(#filter4_f_106_109)">
<path d="M-9.25379 989.319C108.154 773.678 27.7061 503.246 -187.935 385.838V385.838C-403.576 268.431 -674.378 347.622 -791.785 563.263V563.263C-909.193 778.904 -828.745 1049.34 -613.104 1166.74V1166.74C-397.464 1284.15 -126.661 1204.96 -9.25379 989.319V989.319Z" fill="url(#paint4_angular_106_109)"/>
</g>
<g filter="url(#filter5_f_106_109)">
<path d="M2538.76 613.369C2443.07 386.569 2181.64 280.281 1954.84 375.968L1908.02 395.724C1681.22 491.411 1574.93 752.839 1670.62 979.639L1689.61 1024.66C1785.3 1251.46 2046.73 1357.75 2273.53 1262.06L2320.35 1242.31C2547.15 1146.62 2653.44 885.191 2557.75 658.391L2538.76 613.369Z" fill="url(#paint5_radial_106_109)"/>
<path d="M2538.76 613.369C2443.07 386.569 2181.64 280.281 1954.84 375.968L1908.02 395.724C1681.22 491.411 1574.93 752.839 1670.62 979.639L1689.61 1024.66C1785.3 1251.46 2046.73 1357.75 2273.53 1262.06L2320.35 1242.31C2547.15 1146.62 2653.44 885.191 2557.75 658.391L2538.76 613.369Z" stroke="#00E29A" stroke-width="52.3709"/>
</g>
<g filter="url(#filter6_f_106_109)">
<rect width="873.655" height="872.639" rx="436.319" transform="matrix(-0.86565 0.50065 0.50065 0.86565 2584.9 200.181)" fill="url(#paint6_radial_106_109)"/>
</g>
<g filter="url(#filter7_f_106_109)">
<path d="M2385.03 79.0476C2180.55 -144.223 1833.79 -159.457 1610.52 45.0197L1504.27 142.33C1281 346.807 1265.76 693.565 1470.24 916.835L1539.62 992.596C1744.1 1215.87 2090.86 1231.1 2314.13 1026.62L2420.38 929.313C2643.65 724.836 2658.89 378.079 2454.41 154.809L2385.03 79.0476Z" fill="url(#paint7_radial_106_109)"/>
</g>
<g filter="url(#filter8_f_106_109)">
<rect width="1270.96" height="1269.49" rx="610.365" transform="matrix(-0.86565 0.50065 0.50065 0.86565 2710.43 -354.908)" fill="url(#paint8_radial_106_109)"/>
</g>
<g filter="url(#filter9_f_106_109)">
<path d="M2637.75 989.319C2755.16 773.678 2674.71 503.246 2459.07 385.839V385.839C2243.43 268.431 1972.62 347.622 1855.22 563.263V563.263C1737.81 778.904 1818.26 1049.34 2033.9 1166.74V1166.74C2249.54 1284.15 2520.34 1204.96 2637.75 989.319V989.319Z" fill="url(#paint9_angular_106_109)"/>
</g>
<defs>
<filter id="filter0_f_106_109" x="-1287.34" y="65.0098" width="1509.05" height="1508.01" filterUnits="userSpaceOnUse" color-interpolation-filters="sRGB">
<feFlood flood-opacity="0" result="BackgroundImageFix"/>
<feBlend mode="normal" in="SourceGraphic" in2="BackgroundImageFix" result="shape"/>
<feGaussianBlur stdDeviation="124.799" result="effect1_foregroundBlur_106_109"/>
</filter>
<filter id="filter1_f_106_109" x="-898.585" y="120.052" width="1353.58" height="1353.05" filterUnits="userSpaceOnUse" color-interpolation-filters="sRGB">
<feFlood flood-opacity="0" result="BackgroundImageFix"/>
<feBlend mode="normal" in="SourceGraphic" in2="BackgroundImageFix" result="shape"/>
<feGaussianBlur stdDeviation="120.034" result="effect1_foregroundBlur_106_109"/>
</filter>
<filter id="filter2_f_106_109" x="-1737.21" y="-515.426" width="2105.06" height="2102.49" filterUnits="userSpaceOnUse" color-interpolation-filters="sRGB">
<feFlood flood-opacity="0" result="BackgroundImageFix"/>
<feBlend mode="normal" in="SourceGraphic" in2="BackgroundImageFix" result="shape"/>
<feGaussianBlur stdDeviation="208.261" result="effect1_foregroundBlur_106_109"/>
</filter>
<filter id="filter3_f_106_109" x="-1263.31" y="-581.433" width="2188.83" height="2188.29" filterUnits="userSpaceOnUse" color-interpolation-filters="sRGB">
<feFlood flood-opacity="0" result="BackgroundImageFix"/>
<feBlend mode="normal" in="SourceGraphic" in2="BackgroundImageFix" result="shape"/>
<feGaussianBlur stdDeviation="225" result="effect1_foregroundBlur_106_109"/>
</filter>
<filter id="filter4_f_106_109" x="-1157.6" y="19.7302" width="1514.16" height="1513.12" filterUnits="userSpaceOnUse" color-interpolation-filters="sRGB">
<feFlood flood-opacity="0" result="BackgroundImageFix"/>
<feBlend mode="normal" in="SourceGraphic" in2="BackgroundImageFix" result="shape"/>
<feGaussianBlur stdDeviation="155.9" result="effect1_foregroundBlur_106_109"/>
</filter>
<filter id="filter5_f_106_109" x="1359.66" y="65.0098" width="1509.05" height="1508.01" filterUnits="userSpaceOnUse" color-interpolation-filters="sRGB">
<feFlood flood-opacity="0" result="BackgroundImageFix"/>
<feBlend mode="normal" in="SourceGraphic" in2="BackgroundImageFix" result="shape"/>
<feGaussianBlur stdDeviation="124.799" result="effect1_foregroundBlur_106_109"/>
</filter>
<filter id="filter6_f_106_109" x="1748.42" y="120.052" width="1353.58" height="1353.05" filterUnits="userSpaceOnUse" color-interpolation-filters="sRGB">
<feFlood flood-opacity="0" result="BackgroundImageFix"/>
<feBlend mode="normal" in="SourceGraphic" in2="BackgroundImageFix" result="shape"/>
<feGaussianBlur stdDeviation="120.034" result="effect1_foregroundBlur_106_109"/>
</filter>
<filter id="filter7_f_106_109" x="909.793" y="-515.426" width="2105.06" height="2102.49" filterUnits="userSpaceOnUse" color-interpolation-filters="sRGB">
<feFlood flood-opacity="0" result="BackgroundImageFix"/>
<feBlend mode="normal" in="SourceGraphic" in2="BackgroundImageFix" result="shape"/>
<feGaussianBlur stdDeviation="208.261" result="effect1_foregroundBlur_106_109"/>
</filter>
<filter id="filter8_f_106_109" x="1538.43" y="-426.697" width="1879.35" height="1878.81" filterUnits="userSpaceOnUse" color-interpolation-filters="sRGB">
<feFlood flood-opacity="0" result="BackgroundImageFix"/>
<feBlend mode="normal" in="SourceGraphic" in2="BackgroundImageFix" result="shape"/>
<feGaussianBlur stdDeviation="147.632" result="effect1_foregroundBlur_106_109"/>
</filter>
<filter id="filter9_f_106_109" x="1489.4" y="19.7302" width="1514.16" height="1513.12" filterUnits="userSpaceOnUse" color-interpolation-filters="sRGB">
<feFlood flood-opacity="0" result="BackgroundImageFix"/>
<feBlend mode="normal" in="SourceGraphic" in2="BackgroundImageFix" result="shape"/>
<feGaussianBlur stdDeviation="155.9" result="effect1_foregroundBlur_106_109"/>
</filter>
<radialGradient id="paint0_radial_106_109" cx="0" cy="0" r="1" gradientUnits="userSpaceOnUse" gradientTransform="translate(-345.059 730.114) rotate(67.7244) scale(2046.89 2051.16)">
<stop stop-color="#5AE9FD"/>
<stop offset="1" stop-color="#5AE9FD" stop-opacity="0"/>
</radialGradient>
<radialGradient id="paint1_radial_106_109" cx="0" cy="0" r="1" gradientUnits="userSpaceOnUse" gradientTransform="translate(436.827 436.319) rotate(90) scale(436.319 436.827)">
<stop stop-color="#38B7FF"/>
<stop offset="1" stop-color="#4AE0E0" stop-opacity="0.65"/>
</radialGradient>
<radialGradient id="paint2_radial_106_109" cx="0" cy="0" r="1" gradientUnits="userSpaceOnUse" gradientTransform="translate(-684.678 535.822) rotate(47.5157) scale(599.552 1972.23)">
<stop stop-color="#6012C3"/>
<stop offset="1" stop-color="#9949FF" stop-opacity="0.37"/>
</radialGradient>
<radialGradient id="paint3_radial_106_109" cx="0" cy="0" r="1" gradientUnits="userSpaceOnUse" gradientTransform="translate(1012.26 741.631) rotate(151.133) scale(599.607 600.305)">
<stop stop-color="#FFF9C5"/>
<stop offset="0.755208" stop-color="#FF5C00"/>
<stop offset="1" stop-color="#FF451C"/>
</radialGradient>
<radialGradient id="paint4_angular_106_109" cx="0" cy="0" r="1" gradientUnits="userSpaceOnUse" gradientTransform="translate(-400.52 776.291) rotate(118.566) scale(444.573 450.315)">
<stop stop-color="#FFD748"/>
<stop offset="1" stop-color="#FFD84B" stop-opacity="0"/>
</radialGradient>
<radialGradient id="paint5_radial_106_109" cx="0" cy="0" r="1" gradientUnits="userSpaceOnUse" gradientTransform="translate(2301.94 730.114) rotate(67.7244) scale(2046.89 2051.16)">
<stop stop-color="#5AE9FD"/>
<stop offset="1" stop-color="#5AE9FD" stop-opacity="0"/>
</radialGradient>
<radialGradient id="paint6_radial_106_109" cx="0" cy="0" r="1" gradientUnits="userSpaceOnUse" gradientTransform="translate(436.827 436.319) rotate(90) scale(436.319 436.827)">
<stop stop-color="#38B7FF"/>
<stop offset="1" stop-color="#4AE0E0" stop-opacity="0.65"/>
</radialGradient>
<radialGradient id="paint7_radial_106_109" cx="0" cy="0" r="1" gradientUnits="userSpaceOnUse" gradientTransform="translate(1962.32 535.822) rotate(47.5157) scale(599.552 1972.23)">
<stop stop-color="#6012C3"/>
<stop offset="1" stop-color="#9949FF" stop-opacity="0.37"/>
</radialGradient>
<radialGradient id="paint8_radial_106_109" cx="0" cy="0" r="1" gradientUnits="userSpaceOnUse" gradientTransform="translate(1012.26 741.631) rotate(151.133) scale(599.607 600.305)">
<stop stop-color="#FFF9C5"/>
<stop offset="0.755208" stop-color="#FF5C00"/>
<stop offset="1" stop-color="#FF451C"/>
</radialGradient>
<radialGradient id="paint9_angular_106_109" cx="0" cy="0" r="1" gradientUnits="userSpaceOnUse" gradientTransform="translate(2246.48 776.291) rotate(118.566) scale(444.573 450.315)">
<stop stop-color="#FFD748"/>
<stop offset="1" stop-color="#FFD84B" stop-opacity="0"/>
</radialGradient>
</defs>
</svg>
